<svg xmlns="http://www.w3.org/2000/svg" viewBox="0 0 382.55 335.06"><defs><style>.cls-1{fill:#fd5672;}</style></defs><g id="Capa_2" data-name="Capa 2"><g id="Background_Imagen" data-name="Background Imagen"><path class="cls-1" d="M190.79,335H16.85C4.78,335,.16,330.45.14,318.51c0-9.66.42-19.35-.1-29C-.59,278,7,273.12,16.7,273.12h97q125.46,0,250.91,0a26.5,26.5,0,0,1,9.79,1.51c4.93,1.92,8,5.6,8,11,.16,12.32.23,24.66,0,37-.15,7.49-6.2,12.44-14.66,12.45q-49.73,0-99.46,0H190.79Z"/><path class="cls-1" d="M191,61.18H18.1c-2,0-4,.07-6-.08A12.38,12.38,0,0,1,.22,48.7C.06,37.37.1,26,.16,14.72.21,4.75,4.93,0,14.9,0q55.47,0,111,0Q245.31,0,364.76,0c1.5,0,3,0,4.5,0,7.88.27,13.11,5.36,13.2,13.21.13,11.33.1,22.66,0,34-.05,8.72-5.25,13.9-14,13.93-18.83.07-37.65,0-56.48,0H191Z"/><path class="cls-1" d="M191.34,136.86q87.72,0,175.46,0c11,0,15.68,4.74,15.7,15.83q0,14.75,0,29.5c0,11-4.82,15.84-15.74,15.84q-72.24,0-144.47,0H16.84c-12.11,0-16.68-4.51-16.7-16.47,0-9.83,0-19.66,0-29.49,0-10.62,4.59-15.22,15.22-15.22q88,0,176,0Z"/></g></g></svg>